# xmcd
#
# Track frame offsets: 
#        150
#        17425
#        36587
#        58587
#        88485
#        113175
#        134757
#
# Disc length: 2073 seconds
#
# Revision: 0
# Processed by: cddbd v1.5.1PL0 Copyright (c) Steve Scherf et al.
# Submitted via: ExactAudioCopy v0.95a5
#
DISCID=64081707
DTITLE=Bluescream - The Journey
DYEAR=2004
DGENRE=Blues
TTITLE0=You make it hard
TTITLE1=Testify
TTITLE2=When the battle is over
TTITLE3=Roll with it
TTITLE4=Don't wisper
TTITLE5=Strut
TTITLE6=Ray's blues
EXTD=Tiziana Caforio - Vocals\nUrs Thoma - Vocals\nUrsina Lanz - Harp,
EXTD=Back Vokals\nRolf Birchmeier - Guitars\nPascal Kunz - Rhodes, C3
EXTD=, Steinway, Keys\nJürg Grau - Trumpet\nUrs Frei - Saxes\nFritz No
EXTD=bs - Trombone\nFritz Oberholzer - Bass\nReto Fischer - Drums\n\nR
EXTD=ecorded and Mixed October 2004\nSound and Vision Recording Studios\n
EXTD=Chateau de Faverolles (France]\n\nwww.bluescream.ch
EXTT0=
EXTT1=
EXTT2=
EXTT3=
EXTT4=
EXTT5=
EXTT6=
PLAYORDER=
